ffmpeg started on 2025-07-16 at 16:46:19
Report written to "D:\Convert\FFMetrics\reports\ssim_report-6.txt"
Log level: 32
Command line:
ffmpeg -hide_banner -nostdin -i "G:\\\xc0\xed\xe8\xec\xe5\\Shiza\\\xcb\xe5\xe3\xe5\xed\xe4\xe0 \xee \xc3\xf0\xe0\xed\xea\xf0\xe5\xf1\xf2\xe5\\[SHIZA Project] Grancrest Senki TV [13] [nDrOiDze & Lizaveta]_HEVC.mkv" -i "G:\\\xc0\xed\xe8\xec\xe5\\Shiza\\\xcb\xe5\xe3\xe5\xed\xe4\xe0 \xee \xc3\xf0\xe0\xed\xea\xf0\xe5\xf1\xf2\xe5\\[SHIZA Project] Grancrest Senki TV [13] [nDrOiDze & Lizaveta].mkv" -lavfi "[0:v]settb=AVTB,setpts=PTS-STARTPTS,format=pix_fmts=yuv420p10,fps=24000/1001,scale=1280:720:flags=bicubic[main];[1:v]settb=AVTB,setpts=PTS-STARTPTS,format=pix_fmts=yuv420p,fps=24000/1001,scale=1280:720:flags=bicubic[ref];[main][ref]ssim=eof_action=endall:stats_file='D\\:/Convert/FFMetrics/logs/ssim_logfile-6.txt'" -f null -
Input #0, matroska,webm, from 'G:\Аниме\Shiza\Легенда о Гранкресте\[SHIZA Project] Grancrest Senki TV [13] [nDrOiDze & Lizaveta]_HEVC.mkv':
  Metadata:
    ENCODER         : Lavf61.7.100
  Duration: 00:23:40.54, start: -0.021000, bitrate: 658 kb/s
  Stream #0:0: Video: hevc (Main 10), yuv420p10le(tv, bt709, progressive), 1280x720 [SAR 1:1 DAR 16:9], 23.81 fps, 23.81 tbr, 1k tbn (default)
      Metadata:
        title           : [SHIZA Project] Grancrest Senki TV [WEBRip]
        ENCODER         : Lavc61.19.100 libx265
        BPS             : 464350
        DURATION        : 00:23:40.020000000
        NUMBER_OF_FRAMES: 34047
        NUMBER_OF_BYTES : 82423383
        _STATISTICS_WRITING_APP: mkvpropedit v66.0.0 ('Josie') 64-bit
        _STATISTICS_WRITING_DATE_UTC: 2025-07-14 09:58:26
        _STATISTICS_TAGS: BPS DURATION NUMBER_OF_FRAMES NUMBER_OF_BYTES
  Stream #0:1: Audio: aac (LC), 48000 Hz, stereo, fltp (default)
      Metadata:
        title           : nDrOiDze & Lizaveta
        ENCODER         : Lavc61.19.100 aac
        BPS             : 190698
        DURATION        : 00:23:40.522000000
        NUMBER_OF_FRAMES: 66588
        NUMBER_OF_BYTES : 33861420
        _STATISTICS_WRITING_APP: mkvpropedit v66.0.0 ('Josie') 64-bit
        _STATISTICS_WRITING_DATE_UTC: 2025-07-14 09:58:26
        _STATISTICS_TAGS: BPS DURATION NUMBER_OF_FRAMES NUMBER_OF_BYTES
Input #1, matroska,webm, from 'G:\Аниме\Shiza\Легенда о Гранкресте\[SHIZA Project] Grancrest Senki TV [13] [nDrOiDze & Lizaveta].mkv':
  Metadata:
    encoder         : libebml v1.3.4 + libmatroska v1.4.5
    creation_time   : 2018-04-28T14:39:24.000000Z
  Duration: 00:23:40.52, start: 0.000000, bitrate: 1965 kb/s
  Stream #1:0: Video: h264 (High), yuv420p(progressive), 1280x720 [SAR 1:1 DAR 16:9], 23.81 fps, 23.81 tbr, 1k tbn (default)
      Metadata:
        title           : [SHIZA Project] Grancrest Senki TV [WEBRip]
        BPS             : 1773884
        BPS-eng         : 1773884
        DURATION        : 00:23:40.003000000
        DURATION-eng    : 00:23:40.003000000
        NUMBER_OF_FRAMES: 34047
        NUMBER_OF_FRAMES-eng: 34047
        NUMBER_OF_BYTES : 314865183
        NUMBER_OF_BYTES-eng: 314865183
        _STATISTICS_WRITING_APP: mkvmerge v11.0.0 ('Alive') 64bit
        _STATISTICS_WRITING_APP-eng: mkvmerge v11.0.0 ('Alive') 64bit
        _STATISTICS_WRITING_DATE_UTC: 2018-04-28 14:39:24
        _STATISTICS_WRITING_DATE_UTC-eng: 2018-04-28 14:39:24
        _STATISTICS_TAGS: BPS DURATION NUMBER_OF_FRAMES NUMBER_OF_BYTES
        _STATISTICS_TAGS-eng: BPS DURATION NUMBER_OF_FRAMES NUMBER_OF_BYTES
  Stream #1:1: Audio: aac (LC), 48000 Hz, stereo, fltp (default)
      Metadata:
        title           : nDrOiDze & Lizaveta
        BPS             : 187880
        BPS-eng         : 187880
        DURATION        : 00:23:40.522000000
        DURATION-eng    : 00:23:40.522000000
        NUMBER_OF_FRAMES: 66587
        NUMBER_OF_FRAMES-eng: 66587
        NUMBER_OF_BYTES : 33361079
        NUMBER_OF_BYTES-eng: 33361079
        _STATISTICS_WRITING_APP: mkvmerge v11.0.0 ('Alive') 64bit
        _STATISTICS_WRITING_APP-eng: mkvmerge v11.0.0 ('Alive') 64bit
        _STATISTICS_WRITING_DATE_UTC: 2018-04-28 14:39:24
        _STATISTICS_WRITING_DATE_UTC-eng: 2018-04-28 14:39:24
        _STATISTICS_TAGS: BPS DURATION NUMBER_OF_FRAMES NUMBER_OF_BYTES
        _STATISTICS_TAGS-eng: BPS DURATION NUMBER_OF_FRAMES NUMBER_OF_BYTES
  Stream #1:2: Attachment: ttf
      Metadata:
        filename        : OpenSans-Semibold.ttf
        mimetype        : application/x-truetype-font
Stream mapping:
  Stream #0:0 (hevc) -> settb:default
  Stream #1:0 (h264) -> settb:default
  ssim:default -> Stream #0:0 (wrapped_avframe)
  Stream #0:1 -> #0:1 (aac (native) -> pcm_s16le (native))
[swscaler @ 00000269af217b00] No accelerated colorspace conversion found from yuv420p to bgr48le.
[swscaler @ 00000269af2ff200] No accelerated colorspace conversion found from yuv420p to bgr48le.
[swscaler @ 00000269af45cb80] No accelerated colorspace conversion found from yuv420p to bgr48le.
[swscaler @ 00000269af57a140] No accelerated colorspace conversion found from yuv420p to bgr48le.
[swscaler @ 00000269af702fc0] No accelerated colorspace conversion found from yuv420p to bgr48le.
[swscaler @ 00000269af79a5c0] No accelerated colorspace conversion found from yuv420p to bgr48le.
[swscaler @ 00000269af8eb7c0] No accelerated colorspace conversion found from yuv420p to bgr48le.
[swscaler @ 00000269afa5a740] No accelerated colorspace conversion found from yuv420p to bgr48le.
[swscaler @ 00000269afb4d740] No accelerated colorspace conversion found from yuv420p to bgr48le.
[swscaler @ 00000269afbb1bc0] No accelerated colorspace conversion found from yuv420p to bgr48le.
[swscaler @ 00000269afc2d040] No accelerated colorspace conversion found from yuv420p to bgr48le.
[swscaler @ 00000269afc8a040] No accelerated colorspace conversion found from yuv420p to bgr48le.
[swscaler @ 00000269afcf1040] No accelerated colorspace conversion found from yuv420p to bgr48le.
[swscaler @ 00000269afd70040] No accelerated colorspace conversion found from yuv420p to bgr48le.
[swscaler @ 00000269afdd9040] No accelerated colorspace conversion found from yuv420p to bgr48le.
[swscaler @ 00000269afe48040] No accelerated colorspace conversion found from yuv420p to bgr48le.
Output #0, null, to 'pipe:':
  Metadata:
    encoder         : Lavf61.7.100
  Stream #0:0: Video: wrapped_avframe, yuv420p10le(tv, bt709, progressive), 1280x720 [SAR 1:1 DAR 16:9], q=2-31, 200 kb/s, 23.98 fps, 23.98 tbn
      Metadata:
        encoder         : Lavc61.19.100 wrapped_avframe
  Stream #0:1: Audio: pcm_s16le, 48000 Hz, stereo, s16, 1536 kb/s (default)
      Metadata:
        title           : nDrOiDze & Lizaveta
        _STATISTICS_TAGS: BPS DURATION NUMBER_OF_FRAMES NUMBER_OF_BYTES
        BPS             : 190698
        DURATION        : 00:23:40.522000000
        NUMBER_OF_FRAMES: 66588
        NUMBER_OF_BYTES : 33861420
        _STATISTICS_WRITING_APP: mkvpropedit v66.0.0 ('Josie') 64-bit
        _STATISTICS_WRITING_DATE_UTC: 2025-07-14 09:58:26
        encoder         : Lavc61.19.100 pcm_s16le
frame=   77 fps=0.0 q=-0.0 size=N/A time=00:00:03.21 bitrate=N/A speed=6.19x    frame=  163 fps=158 q=-0.0 size=N/A time=00:00:06.79 bitrate=N/A speed= 6.6x    frame=  251 fps=162 q=-0.0 size=N/A time=00:00:10.46 bitrate=N/A speed=6.77x    frame=  340 fps=165 q=-0.0 size=N/A time=00:00:14.18 bitrate=N/A speed=6.88x    frame=  427 fps=165 q=-0.0 size=N/A time=00:00:17.80 bitrate=N/A speed= 6.9x    frame=  517 fps=167 q=-0.0 size=N/A time=00:00:21.56 bitrate=N/A speed=6.98x    frame=  607 fps=168 q=-0.0 size=N/A time=00:00:25.31 bitrate=N/A speed=7.01x    frame=  694 fps=168 q=-0.0 size=N/A time=00:00:28.94 bitrate=N/A speed=   7x    frame=  784 fps=169 q=-0.0 size=N/A time=00:00:32.69 bitrate=N/A speed=7.04x    frame=  880 fps=170 q=-0.0 size=N/A time=00:00:36.70 bitrate=N/A speed=7.11x    frame=  967 fps=170 q=-0.0 size=N/A time=00:00:40.33 bitrate=N/A speed=7.11x    frame= 1057 fps=171 q=-0.0 size=N/A time=00:00:44.08 bitrate=N/A speed=7.11x    frame= 1139 fps=170 q=-0.0 size=N/A time=00:00:47.50 bitrate=N/A speed=7.08x    frame= 1229 fps=170 q=-0.0 size=N/A time=00:00:51.25 bitrate=N/A speed= 7.1x    frame= 1317 fps=170 q=-0.0 size=N/A time=00:00:54.92 bitrate=N/A speed= 7.1x    frame= 1405 fps=170 q=-0.0 size=N/A time=00:00:58.60 bitrate=N/A speed=7.09x    frame= 1493 fps=170 q=-0.0 size=N/A time=00:01:02.27 bitrate=N/A speed=7.09x    frame= 1575 fps=169 q=-0.0 size=N/A time=00:01:05.69 bitrate=N/A speed=7.07x    frame= 1666 fps=170 q=-0.0 size=N/A time=00:01:09.48 bitrate=N/A speed=7.08x    frame= 1759 fps=170 q=-0.0 size=N/A time=00:01:13.36 bitrate=N/A speed= 7.1x    frame= 1844 fps=170 q=-0.0 size=N/A time=00:01:16.91 bitrate=N/A speed=7.09x    frame= 1940 fps=171 q=-0.0 size=N/A time=00:01:20.91 bitrate=N/A speed=7.12x    frame= 2027 fps=171 q=-0.0 size=N/A time=00:01:24.54 bitrate=N/A speed=7.12x    frame= 2109 fps=170 q=-0.0 size=N/A time=00:01:27.96 bitrate=N/A speed= 7.1x    frame= 2199 fps=170 q=-0.0 size=N/A time=00:01:31.71 bitrate=N/A speed=7.11x    frame= 2288 fps=170 q=-0.0 size=N/A time=00:01:35.42 bitrate=N/A speed=7.11x    frame= 2384 fps=171 q=-0.0 size=N/A time=00:01:39.43 bitrate=N/A speed=7.13x    frame= 2474 fps=171 q=-0.0 size=N/A time=00:01:43.18 bitrate=N/A speed=7.14x    frame= 2556 fps=171 q=-0.0 size=N/A time=00:01:46.60 bitrate=N/A speed=7.12x    frame= 2651 fps=171 q=-0.0 size=N/A time=00:01:50.56 bitrate=N/A speed=7.14x    frame= 2733 fps=171 q=-0.0 size=N/A time=00:01:53.98 bitrate=N/A speed=7.13x    frame= 2819 fps=171 q=-0.0 size=N/A time=00:01:57.57 bitrate=N/A speed=7.12x    frame= 2910 fps=171 q=-0.0 size=N/A time=00:02:01.37 bitrate=N/A speed=7.12x    frame= 3005 fps=171 q=-0.0 size=N/A time=00:02:05.33 bitrate=N/A speed=7.14x    frame= 3092 fps=171 q=-0.0 size=N/A time=00:02:08.96 bitrate=N/A speed=7.14x    frame= 3173 fps=171 q=-0.0 size=N/A time=00:02:12.34 bitrate=N/A speed=7.12x    frame= 3268 fps=171 q=-0.0 size=N/A time=00:02:16.30 bitrate=N/A speed=7.14x    frame= 3354 fps=171 q=-0.0 size=N/A time=00:02:19.88 bitrate=N/A speed=7.13x    frame= 3432 fps=170 q=-0.0 size=N/A time=00:02:23.14 bitrate=N/A speed=7.11x    frame= 3533 fps=171 q=-0.0 size=N/A time=00:02:27.35 bitrate=N/A speed=7.14x    frame= 3622 fps=171 q=-0.0 size=N/A time=00:02:31.06 bitrate=N/A speed=7.14x    frame= 3713 fps=171 q=-0.0 size=N/A time=00:02:34.86 bitrate=N/A speed=7.15x    frame= 3804 fps=171 q=-0.0 size=N/A time=00:02:38.65 bitrate=N/A speed=7.15x    frame= 3892 fps=171 q=-0.0 size=N/A time=00:02:42.32 bitrate=N/A speed=7.15x    frame= 3978 fps=171 q=-0.0 size=N/A time=00:02:45.91 bitrate=N/A speed=7.14x    frame= 4070 fps=171 q=-0.0 size=N/A time=00:02:49.75 bitrate=N/A speed=7.15x    frame= 4162 fps=172 q=-0.0 size=N/A time=00:02:53.59 bitrate=N/A speed=7.16x    frame= 4250 fps=172 q=-0.0 size=N/A time=00:02:57.26 bitrate=N/A speed=7.16x    frame= 4337 fps=172 q=-0.0 size=N/A time=00:03:00.88 bitrate=N/A speed=7.15x    frame= 4429 fps=172 q=-0.0 size=N/A time=00:03:04.72 bitrate=N/A speed=7.16x    frame= 4513 fps=172 q=-0.0 size=N/A time=00:03:08.22 bitrate=N/A speed=7.15x    frame= 4596 fps=171 q=-0.0 size=N/A time=00:03:11.69 bitrate=N/A speed=7.14x    frame= 4677 fps=171 q=-0.0 size=N/A time=00:03:15.06 bitrate=N/A speed=7.13x    frame= 4771 fps=171 q=-0.0 size=N/A time=00:03:18.99 bitrate=N/A speed=7.14x    frame= 4855 fps=171 q=-0.0 size=N/A time=00:03:22.49 bitrate=N/A speed=7.14x    frame= 4947 fps=171 q=-0.0 size=N/A time=00:03:26.33 bitrate=N/A speed=7.14x    frame= 5035 fps=171 q=-0.0 size=N/A time=00:03:30.00 bitrate=N/A speed=7.14x    frame= 5122 fps=171 q=-0.0 size=N/A time=00:03:33.63 bitrate=N/A speed=7.14x    frame= 5214 fps=171 q=-0.0 size=N/A time=00:03:37.46 bitrate=N/A speed=7.15x    frame= 5304 fps=171 q=-0.0 size=N/A time=00:03:41.22 bitrate=N/A speed=7.15x    frame= 5384 fps=171 q=-0.0 size=N/A time=00:03:44.55 bitrate=N/A speed=7.13x    frame= 5475 fps=171 q=-0.0 size=N/A time=00:03:48.35 bitrate=N/A speed=7.14x    frame= 5566 fps=171 q=-0.0 size=N/A time=00:03:52.14 bitrate=N/A speed=7.14x    frame= 5652 fps=171 q=-0.0 size=N/A time=00:03:55.73 bitrate=N/A speed=7.14x    frame= 5742 fps=171 q=-0.0 size=N/A time=00:03:59.48 bitrate=N/A speed=7.14x    frame= 5825 fps=171 q=-0.0 size=N/A time=00:04:02.95 bitrate=N/A speed=7.14x    frame= 5915 fps=171 q=-0.0 size=N/A time=00:04:06.70 bitrate=N/A speed=7.14x    frame= 6002 fps=171 q=-0.0 size=N/A time=00:04:10.33 bitrate=N/A speed=7.14x    frame= 6093 fps=171 q=-0.0 size=N/A time=00:04:14.12 bitrate=N/A speed=7.14x    frame= 6180 fps=171 q=-0.0 size=N/A time=00:04:17.75 bitrate=N/A speed=7.14x    frame= 6270 fps=171 q=-0.0 size=N/A time=00:04:21.51 bitrate=N/A speed=7.14x    frame= 6355 fps=171 q=-0.0 size=N/A time=00:04:25.05 bitrate=N/A speed=7.14x    frame= 6443 fps=171 q=-0.0 size=N/A time=00:04:28.72 bitrate=N/A speed=7.14x    frame= 6516 fps=171 q=-0.0 size=N/A time=00:04:31.77 bitrate=N/A speed=7.12x    frame= 6617 fps=171 q=-0.0 size=N/A time=00:04:35.98 bitrate=N/A speed=7.13x    frame= 6704 fps=171 q=-0.0 size=N/A time=00:04:39.61 bitrate=N/A speed=7.13x    frame= 6791 fps=171 q=-0.0 size=N/A time=00:04:43.24 bitrate=N/A speed=7.13x    frame= 6878 fps=171 q=-0.0 size=N/A time=00:04:46.86 bitrate=N/A speed=7.13x    frame= 6965 fps=171 q=-0.0 size=N/A time=00:04:50.49 bitrate=N/A speed=7.13x    frame= 7055 fps=171 q=-0.0 size=N/A time=00:04:54.25 bitrate=N/A speed=7.13x    frame= 7147 fps=171 q=-0.0 size=N/A time=00:04:58.08 bitrate=N/A speed=7.13x    frame= 7238 fps=171 q=-0.0 size=N/A time=00:05:01.88 bitrate=N/A speed=7.14x    frame= 7330 fps=171 q=-0.0 size=N/A time=00:05:05.72 bitrate=N/A speed=7.14x    frame= 7419 fps=171 q=-0.0 size=N/A time=00:05:09.43 bitrate=N/A speed=7.14x    frame= 7509 fps=171 q=-0.0 size=N/A time=00:05:13.18 bitrate=N/A speed=7.14x    frame= 7595 fps=171 q=-0.0 size=N/A time=00:05:16.77 bitrate=N/A speed=7.14x    frame= 7685 fps=171 q=-0.0 size=N/A time=00:05:20.52 bitrate=N/A speed=7.14x    frame= 7772 fps=171 q=-0.0 size=N/A time=00:05:24.15 bitrate=N/A speed=7.14x    frame= 7860 fps=171 q=-0.0 size=N/A time=00:05:27.82 bitrate=N/A speed=7.14x    frame= 7949 fps=171 q=-0.0 size=N/A time=00:05:31.53 bitrate=N/A speed=7.14x    frame= 8039 fps=171 q=-0.0 size=N/A time=00:05:35.29 bitrate=N/A speed=7.14x    frame= 8125 fps=171 q=-0.0 size=N/A time=00:05:38.88 bitrate=N/A speed=7.14x    frame= 8216 fps=171 q=-0.0 size=N/A time=00:05:42.67 bitrate=N/A speed=7.14x    frame= 8307 fps=171 q=-0.0 size=N/A time=00:05:46.47 bitrate=N/A speed=7.14x    frame= 8398 fps=171 q=-0.0 size=N/A time=00:05:50.26 bitrate=N/A speed=7.15x    frame= 8481 fps=171 q=-0.0 size=N/A time=00:05:53.72 bitrate=N/A speed=7.14x    frame= 8571 fps=171 q=-0.0 size=N/A time=00:05:57.48 bitrate=N/A speed=7.14x    frame= 8664 fps=171 q=-0.0 size=N/A time=00:06:01.36 bitrate=N/A speed=7.15x    frame= 8750 fps=171 q=-0.0 size=N/A time=00:06:04.94 bitrate=N/A speed=7.14x    frame= 8836 fps=171 q=-0.0 size=N/A time=00:06:08.53 bitrate=N/A speed=7.14x    frame= 8921 fps=171 q=-0.0 size=N/A time=00:06:12.08 bitrate=N/A speed=7.14x    frame= 9024 fps=171 q=-0.0 size=N/A time=00:06:16.37 bitrate=N/A speed=7.15x    frame= 9114 fps=171 q=-0.0 size=N/A time=00:06:20.12 bitrate=N/A speed=7.15x    frame= 9207 fps=172 q=-0.0 size=N/A time=00:06:24.00 bitrate=N/A speed=7.16x    frame= 9297 fps=172 q=-0.0 size=N/A time=00:06:27.76 bitrate=N/A speed=7.16x    frame= 9385 fps=172 q=-0.0 size=N/A time=00:06:31.43 bitrate=N/A speed=7.16x    frame= 9480 fps=172 q=-0.0 size=N/A time=00:06:35.39 bitrate=N/A speed=7.16x    frame= 9566 fps=172 q=-0.0 size=N/A time=00:06:38.98 bitrate=N/A speed=7.16x    frame= 9656 fps=172 q=-0.0 size=N/A time=00:06:42.73 bitrate=N/A speed=7.16x    frame= 9755 fps=172 q=-0.0 size=N/A time=00:06:46.86 bitrate=N/A speed=7.17x    frame= 9842 fps=172 q=-0.0 size=N/A time=00:06:50.49 bitrate=N/A speed=7.17x    frame= 9937 fps=172 q=-0.0 size=N/A time=00:06:54.45 bitrate=N/A speed=7.17x    frame=10019 fps=172 q=-0.0 size=N/A time=00:06:57.87 bitrate=N/A speed=7.17x    frame=10114 fps=172 q=-0.0 size=N/A time=00:07:01.83 bitrate=N/A speed=7.17x    frame=10209 fps=172 q=-0.0 size=N/A time=00:07:05.80 bitrate=N/A speed=7.17x    frame=10298 fps=172 q=-0.0 size=N/A time=00:07:09.51 bitrate=N/A speed=7.18x    frame=10390 fps=172 q=-0.0 size=N/A time=00:07:13.34 bitrate=N/A speed=7.18x    frame=10477 fps=172 q=-0.0 size=N/A time=00:07:16.97 bitrate=N/A speed=7.18x    frame=10567 fps=172 q=-0.0 size=N/A time=00:07:20.73 bitrate=N/A speed=7.18x    frame=10656 fps=172 q=-0.0 size=N/A time=00:07:24.44 bitrate=N/A speed=7.18x    frame=10746 fps=172 q=-0.0 size=N/A time=00:07:28.19 bitrate=N/A speed=7.18x    frame=10833 fps=172 q=-0.0 size=N/A time=00:07:31.82 bitrate=N/A speed=7.18x    frame=10924 fps=172 q=-0.0 size=N/A time=00:07:35.62 bitrate=N/A speed=7.18x    frame=11014 fps=172 q=-0.0 size=N/A time=00:07:39.37 bitrate=N/A speed=7.18x    frame=11101 fps=172 q=-0.0 size=N/A time=00:07:43.00 bitrate=N/A speed=7.18x    frame=11189 fps=172 q=-0.0 size=N/A time=00:07:46.67 bitrate=N/A speed=7.18x    frame=11274 fps=172 q=-0.0 size=N/A time=00:07:50.21 bitrate=N/A speed=7.18x    frame=11364 fps=172 q=-0.0 size=N/A time=00:07:53.97 bitrate=N/A speed=7.18x    frame=11455 fps=172 q=-0.0 size=N/A time=00:07:57.76 bitrate=N/A speed=7.18x    frame=11543 fps=172 q=-0.0 size=N/A time=00:08:01.43 bitrate=N/A speed=7.18x    frame=11630 fps=172 q=-0.0 size=N/A time=00:08:05.06 bitrate=N/A speed=7.18x    frame=11717 fps=172 q=-0.0 size=N/A time=00:08:08.69 bitrate=N/A speed=7.17x    frame=11799 fps=172 q=-0.0 size=N/A time=00:08:12.11 bitrate=N/A speed=7.17x    frame=11886 fps=172 q=-0.0 size=N/A time=00:08:15.74 bitrate=N/A speed=7.17x    frame=11973 fps=172 q=-0.0 size=N/A time=00:08:19.37 bitrate=N/A speed=7.17x    frame=12056 fps=172 q=-0.0 size=N/A time=00:08:22.83 bitrate=N/A speed=7.17x    frame=12139 fps=172 q=-0.0 size=N/A time=00:08:26.29 bitrate=N/A speed=7.16x    frame=12223 fps=172 q=-0.0 size=N/A time=00:08:29.80 bitrate=N/A speed=7.16x    frame=12305 fps=172 q=-0.0 size=N/A time=00:08:33.22 bitrate=N/A speed=7.16x    frame=12391 fps=172 q=-0.0 size=N/A time=00:08:36.80 bitrate=N/A speed=7.15x    frame=12475 fps=171 q=-0.0 size=N/A time=00:08:40.31 bitrate=N/A speed=7.15x    frame=12560 fps=171 q=-0.0 size=N/A time=00:08:43.85 bitrate=N/A speed=7.15x    frame=12645 fps=171 q=-0.0 size=N/A time=00:08:47.40 bitrate=N/A speed=7.15x    frame=12731 fps=171 q=-0.0 size=N/A time=00:08:50.98 bitrate=N/A speed=7.15x    frame=12818 fps=171 q=-0.0 size=N/A time=00:08:54.61 bitrate=N/A speed=7.15x    frame=12901 fps=171 q=-0.0 size=N/A time=00:08:58.07 bitrate=N/A speed=7.14x    frame=12989 fps=171 q=-0.0 size=N/A time=00:09:01.74 bitrate=N/A speed=7.14x    frame=13075 fps=171 q=-0.0 size=N/A time=00:09:05.33 bitrate=N/A speed=7.14x    frame=13163 fps=171 q=-0.0 size=N/A time=00:09:09.00 bitrate=N/A speed=7.14x    frame=13255 fps=171 q=-0.0 size=N/A time=00:09:12.84 bitrate=N/A speed=7.14x    frame=13344 fps=171 q=-0.0 size=N/A time=00:09:16.55 bitrate=N/A speed=7.14x    frame=13435 fps=171 q=-0.0 size=N/A time=00:09:20.35 bitrate=N/A speed=7.14x    frame=13525 fps=171 q=-0.0 size=N/A time=00:09:24.10 bitrate=N/A speed=7.15x    frame=13616 fps=171 q=-0.0 size=N/A time=00:09:27.90 bitrate=N/A speed=7.15x    frame=13706 fps=171 q=-0.0 size=N/A time=00:09:31.65 bitrate=N/A speed=7.15x    frame=13797 fps=171 q=-0.0 size=N/A time=00:09:35.44 bitrate=N/A speed=7.15x    frame=13883 fps=171 q=-0.0 size=N/A time=00:09:39.03 bitrate=N/A speed=7.15x    frame=13971 fps=171 q=-0.0 size=N/A time=00:09:42.70 bitrate=N/A speed=7.15x    frame=14062 fps=171 q=-0.0 size=N/A time=00:09:46.50 bitrate=N/A speed=7.15x    frame=14151 fps=171 q=-0.0 size=N/A time=00:09:50.21 bitrate=N/A speed=7.15x    frame=14238 fps=171 q=-0.0 size=N/A time=00:09:53.84 bitrate=N/A speed=7.15x    frame=14326 fps=171 q=-0.0 size=N/A time=00:09:57.51 bitrate=N/A speed=7.15x    frame=14409 fps=171 q=-0.0 size=N/A time=00:10:00.97 bitrate=N/A speed=7.15x    frame=14491 fps=171 q=-0.0 size=N/A time=00:10:04.39 bitrate=N/A speed=7.14x    frame=14582 fps=171 q=-0.0 size=N/A time=00:10:08.19 bitrate=N/A speed=7.14x    frame=14671 fps=171 q=-0.0 size=N/A time=00:10:11.90 bitrate=N/A speed=7.14x    frame=14762 fps=171 q=-0.0 size=N/A time=00:10:15.69 bitrate=N/A speed=7.15x    frame=14851 fps=171 q=-0.0 size=N/A time=00:10:19.41 bitrate=N/A speed=7.15x    frame=14940 fps=171 q=-0.0 size=N/A time=00:10:23.12 bitrate=N/A speed=7.15x    frame=15029 fps=171 q=-0.0 size=N/A time=00:10:26.83 bitrate=N/A speed=7.15x    frame=15106 fps=171 q=-0.0 size=N/A time=00:10:30.04 bitrate=N/A speed=7.14x    frame=15194 fps=171 q=-0.0 size=N/A time=00:10:33.71 bitrate=N/A speed=7.14x    frame=15285 fps=171 q=-0.0 size=N/A time=00:10:37.51 bitrate=N/A speed=7.14x    frame=15373 fps=171 q=-0.0 size=N/A time=00:10:41.18 bitrate=N/A speed=7.14x    frame=15456 fps=171 q=-0.0 size=N/A time=00:10:44.64 bitrate=N/A speed=7.14x    frame=15541 fps=171 q=-0.0 size=N/A time=00:10:48.18 bitrate=N/A speed=7.14x    frame=15633 fps=171 q=-0.0 size=N/A time=00:10:52.02 bitrate=N/A speed=7.14x    frame=15719 fps=171 q=-0.0 size=N/A time=00:10:55.61 bitrate=N/A speed=7.14x    frame=15802 fps=171 q=-0.0 size=N/A time=00:10:59.07 bitrate=N/A speed=7.14x    frame=15888 fps=171 q=-0.0 size=N/A time=00:11:02.66 bitrate=N/A speed=7.14x    frame=15972 fps=171 q=-0.0 size=N/A time=00:11:06.16 bitrate=N/A speed=7.13x    frame=16053 fps=171 q=-0.0 size=N/A time=00:11:09.54 bitrate=N/A speed=7.13x    frame=16144 fps=171 q=-0.0 size=N/A time=00:11:13.33 bitrate=N/A speed=7.13x    frame=16232 fps=171 q=-0.0 size=N/A time=00:11:17.00 bitrate=N/A speed=7.13x    frame=16316 fps=171 q=-0.0 size=N/A time=00:11:20.51 bitrate=N/A speed=7.13x    frame=16403 fps=171 q=-0.0 size=N/A time=00:11:24.14 bitrate=N/A speed=7.13x    frame=16487 fps=171 q=-0.0 size=N/A time=00:11:27.64 bitrate=N/A speed=7.13x    frame=16574 fps=171 q=-0.0 size=N/A time=00:11:31.27 bitrate=N/A speed=7.13x    frame=16658 fps=171 q=-0.0 size=N/A time=00:11:34.77 bitrate=N/A speed=7.13x    frame=16744 fps=171 q=-0.0 size=N/A time=00:11:38.36 bitrate=N/A speed=7.12x    frame=16830 fps=171 q=-0.0 size=N/A time=00:11:41.95 bitrate=N/A speed=7.12x    frame=16922 fps=171 q=-0.0 size=N/A time=00:11:45.78 bitrate=N/A speed=7.12x    frame=17006 fps=171 q=-0.0 size=N/A time=00:11:49.29 bitrate=N/A speed=7.12x    frame=17092 fps=171 q=-0.0 size=N/A time=00:11:52.87 bitrate=N/A speed=7.12x    frame=17177 fps=171 q=-0.0 size=N/A time=00:11:56.42 bitrate=N/A speed=7.12x    frame=17264 fps=171 q=-0.0 size=N/A time=00:12:00.05 bitrate=N/A speed=7.12x    frame=17350 fps=171 q=-0.0 size=N/A time=00:12:03.63 bitrate=N/A speed=7.12x    frame=17429 fps=171 q=-0.0 size=N/A time=00:12:06.93 bitrate=N/A speed=7.12x    frame=17524 fps=171 q=-0.0 size=N/A time=00:12:10.89 bitrate=N/A speed=7.12x    frame=17608 fps=171 q=-0.0 size=N/A time=00:12:14.40 bitrate=N/A speed=7.12x    frame=17694 fps=171 q=-0.0 size=N/A time=00:12:17.98 bitrate=N/A speed=7.12x    frame=17779 fps=171 q=-0.0 size=N/A time=00:12:21.53 bitrate=N/A speed=7.12x    frame=17865 fps=171 q=-0.0 size=N/A time=00:12:25.11 bitrate=N/A speed=7.11x    frame=17950 fps=171 q=-0.0 size=N/A time=00:12:28.66 bitrate=N/A speed=7.11x    frame=18036 fps=171 q=-0.0 size=N/A time=00:12:32.25 bitrate=N/A speed=7.11x    frame=18118 fps=170 q=-0.0 size=N/A time=00:12:35.67 bitrate=N/A speed=7.11x    frame=18210 fps=171 q=-0.0 size=N/A time=00:12:39.50 bitrate=N/A speed=7.11x    frame=18296 fps=170 q=-0.0 size=N/A time=00:12:43.09 bitrate=N/A speed=7.11x    frame=18384 fps=170 q=-0.0 size=N/A time=00:12:46.76 bitrate=N/A speed=7.11x    frame=18473 fps=170 q=-0.0 size=N/A time=00:12:50.47 bitrate=N/A speed=7.11x    frame=18556 fps=170 q=-0.0 size=N/A time=00:12:53.93 bitrate=N/A speed=7.11x    frame=18644 fps=170 q=-0.0 size=N/A time=00:12:57.61 bitrate=N/A speed=7.11x    frame=18729 fps=170 q=-0.0 size=N/A time=00:13:01.15 bitrate=N/A speed=7.11x    frame=18815 fps=170 q=-0.0 size=N/A time=00:13:04.74 bitrate=N/A speed=7.11x    frame=18896 fps=170 q=-0.0 size=N/A time=00:13:08.12 bitrate=N/A speed=7.11x    frame=18991 fps=170 q=-0.0 size=N/A time=00:13:12.08 bitrate=N/A speed=7.11x    frame=19077 fps=170 q=-0.0 size=N/A time=00:13:15.66 bitrate=N/A speed=7.11x    frame=19156 fps=170 q=-0.0 size=N/A time=00:13:18.96 bitrate=N/A speed= 7.1x    frame=19255 fps=170 q=-0.0 size=N/A time=00:13:23.09 bitrate=N/A speed=7.11x    frame=19342 fps=170 q=-0.0 size=N/A time=00:13:26.72 bitrate=N/A speed=7.11x    frame=19432 fps=170 q=-0.0 size=N/A time=00:13:30.47 bitrate=N/A speed=7.11x    frame=19519 fps=170 q=-0.0 size=N/A time=00:13:34.10 bitrate=N/A speed=7.11x    frame=19606 fps=170 q=-0.0 size=N/A time=00:13:37.73 bitrate=N/A speed=7.11x    frame=19689 fps=170 q=-0.0 size=N/A time=00:13:41.19 bitrate=N/A speed=7.11x    frame=19779 fps=170 q=-0.0 size=N/A time=00:13:44.94 bitrate=N/A speed=7.11x    frame=19870 fps=170 q=-0.0 size=N/A time=00:13:48.74 bitrate=N/A speed=7.11x    frame=19959 fps=170 q=-0.0 size=N/A time=00:13:52.45 bitrate=N/A speed=7.11x    frame=20051 fps=170 q=-0.0 size=N/A time=00:13:56.29 bitrate=N/A speed=7.11x    frame=20142 fps=170 q=-0.0 size=N/A time=00:14:00.08 bitrate=N/A speed=7.11x    frame=20228 fps=170 q=-0.0 size=N/A time=00:14:03.67 bitrate=N/A speed=7.11x    frame=20311 fps=170 q=-0.0 size=N/A time=00:14:07.13 bitrate=N/A speed=7.11x    frame=20407 fps=170 q=-0.0 size=N/A time=00:14:11.14 bitrate=N/A speed=7.11x    frame=20493 fps=170 q=-0.0 size=N/A time=00:14:14.72 bitrate=N/A speed=7.11x    frame=20583 fps=170 q=-0.0 size=N/A time=00:14:18.48 bitrate=N/A speed=7.11x    frame=20665 fps=170 q=-0.0 size=N/A time=00:14:21.90 bitrate=N/A speed=7.11x    frame=20759 fps=170 q=-0.0 size=N/A time=00:14:25.82 bitrate=N/A speed=7.11x    frame=20847 fps=171 q=-0.0 size=N/A time=00:14:29.49 bitrate=N/A speed=7.11x    frame=20938 fps=171 q=-0.0 size=N/A time=00:14:33.28 bitrate=N/A speed=7.11x    frame=21020 fps=170 q=-0.0 size=N/A time=00:14:36.70 bitrate=N/A speed=7.11x    frame=21114 fps=171 q=-0.0 size=N/A time=00:14:40.62 bitrate=N/A speed=7.11x    frame=21202 fps=171 q=-0.0 size=N/A time=00:14:44.30 bitrate=N/A speed=7.11x    frame=21285 fps=170 q=-0.0 size=N/A time=00:14:47.76 bitrate=N/A speed=7.11x    frame=21378 fps=171 q=-0.0 size=N/A time=00:14:51.64 bitrate=N/A speed=7.11x    frame=21468 fps=171 q=-0.0 size=N/A time=00:14:55.39 bitrate=N/A speed=7.11x    frame=21555 fps=171 q=-0.0 size=N/A time=00:14:59.02 bitrate=N/A speed=7.11x    frame=21640 fps=171 q=-0.0 size=N/A time=00:15:02.56 bitrate=N/A speed=7.11x    frame=21731 fps=171 q=-0.0 size=N/A time=00:15:06.36 bitrate=N/A speed=7.11x    frame=21823 fps=171 q=-0.0 size=N/A time=00:15:10.20 bitrate=N/A speed=7.11x    frame=21909 fps=171 q=-0.0 size=N/A time=00:15:13.78 bitrate=N/A speed=7.11x    frame=21995 fps=171 q=-0.0 size=N/A time=00:15:17.37 bitrate=N/A speed=7.11x    frame=22089 fps=171 q=-0.0 size=N/A time=00:15:21.29 bitrate=N/A speed=7.11x    frame=22180 fps=171 q=-0.0 size=N/A time=00:15:25.09 bitrate=N/A speed=7.12x    frame=22268 fps=171 q=-0.0 size=N/A time=00:15:28.76 bitrate=N/A speed=7.12x    frame=22363 fps=171 q=-0.0 size=N/A time=00:15:32.72 bitrate=N/A speed=7.12x    frame=22453 fps=171 q=-0.0 size=N/A time=00:15:36.47 bitrate=N/A speed=7.12x    frame=22545 fps=171 q=-0.0 size=N/A time=00:15:40.31 bitrate=N/A speed=7.12x    frame=22634 fps=171 q=-0.0 size=N/A time=00:15:44.02 bitrate=N/A speed=7.12x    frame=22726 fps=171 q=-0.0 size=N/A time=00:15:47.86 bitrate=N/A speed=7.12x    frame=22820 fps=171 q=-0.0 size=N/A time=00:15:51.78 bitrate=N/A speed=7.12x    frame=22913 fps=171 q=-0.0 size=N/A time=00:15:55.66 bitrate=N/A speed=7.12x    frame=23003 fps=171 q=-0.0 size=N/A time=00:15:59.41 bitrate=N/A speed=7.13x    frame=23095 fps=171 q=-0.0 size=N/A time=00:16:03.25 bitrate=N/A speed=7.13x    frame=23183 fps=171 q=-0.0 size=N/A time=00:16:06.92 bitrate=N/A speed=7.13x    frame=23279 fps=171 q=-0.0 size=N/A time=00:16:10.92 bitrate=N/A speed=7.13x    frame=23367 fps=171 q=-0.0 size=N/A time=00:16:14.59 bitrate=N/A speed=7.13x    frame=23458 fps=171 q=-0.0 size=N/A time=00:16:18.39 bitrate=N/A speed=7.13x    frame=23549 fps=171 q=-0.0 size=N/A time=00:16:22.18 bitrate=N/A speed=7.13x    frame=23640 fps=171 q=-0.0 size=N/A time=00:16:25.98 bitrate=N/A speed=7.13x    frame=23729 fps=171 q=-0.0 size=N/A time=00:16:29.69 bitrate=N/A speed=7.13x    frame=23825 fps=171 q=-0.0 size=N/A time=00:16:33.70 bitrate=N/A speed=7.13x    frame=23916 fps=171 q=-0.0 size=N/A time=00:16:37.49 bitrate=N/A speed=7.14x    frame=24006 fps=171 q=-0.0 size=N/A time=00:16:41.25 bitrate=N/A speed=7.14x    frame=24093 fps=171 q=-0.0 size=N/A time=00:16:44.87 bitrate=N/A speed=7.14x    frame=24190 fps=171 q=-0.0 size=N/A time=00:16:48.92 bitrate=N/A speed=7.14x    frame=24281 fps=171 q=-0.0 size=N/A time=00:16:52.72 bitrate=N/A speed=7.14x    frame=24370 fps=171 q=-0.0 size=N/A time=00:16:56.43 bitrate=N/A speed=7.14x    frame=24460 fps=171 q=-0.0 size=N/A time=00:17:00.18 bitrate=N/A speed=7.14x    frame=24545 fps=171 q=-0.0 size=N/A time=00:17:03.73 bitrate=N/A speed=7.14x    frame=24630 fps=171 q=-0.0 size=N/A time=00:17:07.27 bitrate=N/A speed=7.14x    frame=24728 fps=171 q=-0.0 size=N/A time=00:17:11.36 bitrate=N/A speed=7.14x    frame=24820 fps=171 q=-0.0 size=N/A time=00:17:15.20 bitrate=N/A speed=7.14x    frame=24908 fps=171 q=-0.0 size=N/A time=00:17:18.87 bitrate=N/A speed=7.14x    frame=24999 fps=171 q=-0.0 size=N/A time=00:17:22.66 bitrate=N/A speed=7.14x    frame=25085 fps=171 q=-0.0 size=N/A time=00:17:26.25 bitrate=N/A speed=7.14x    frame=25172 fps=171 q=-0.0 size=N/A time=00:17:29.88 bitrate=N/A speed=7.14x    frame=25265 fps=171 q=-0.0 size=N/A time=00:17:33.76 bitrate=N/A speed=7.14x    frame=25359 fps=171 q=-0.0 size=N/A time=00:17:37.68 bitrate=N/A speed=7.14x    frame=25447 fps=171 q=-0.0 size=N/A time=00:17:41.35 bitrate=N/A speed=7.14x    frame=25533 fps=171 q=-0.0 size=N/A time=00:17:44.93 bitrate=N/A speed=7.14x    frame=25626 fps=171 q=-0.0 size=N/A time=00:17:48.81 bitrate=N/A speed=7.14x    frame=25715 fps=171 q=-0.0 size=N/A time=00:17:52.52 bitrate=N/A speed=7.14x    frame=25803 fps=171 q=-0.0 size=N/A time=00:17:56.20 bitrate=N/A speed=7.14x    frame=25897 fps=171 q=-0.0 size=N/A time=00:18:00.12 bitrate=N/A speed=7.15x    frame=25984 fps=171 q=-0.0 size=N/A time=00:18:03.74 bitrate=N/A speed=7.15x    frame=26074 fps=171 q=-0.0 size=N/A time=00:18:07.50 bitrate=N/A speed=7.15x    frame=26156 fps=171 q=-0.0 size=N/A time=00:18:10.92 bitrate=N/A speed=7.14x    frame=26253 fps=171 q=-0.0 size=N/A time=00:18:14.96 bitrate=N/A speed=7.15x    frame=26338 fps=171 q=-0.0 size=N/A time=00:18:18.51 bitrate=N/A speed=7.15x    frame=26423 fps=171 q=-0.0 size=N/A time=00:18:22.05 bitrate=N/A speed=7.15x    frame=26520 fps=171 q=-0.0 size=N/A time=00:18:26.10 bitrate=N/A speed=7.15x    frame=26609 fps=171 q=-0.0 size=N/A time=00:18:29.81 bitrate=N/A speed=7.15x    frame=26701 fps=171 q=-0.0 size=N/A time=00:18:33.65 bitrate=N/A speed=7.15x    frame=26792 fps=171 q=-0.0 size=N/A time=00:18:37.44 bitrate=N/A speed=7.15x    frame=26877 fps=171 q=-0.0 size=N/A time=00:18:40.99 bitrate=N/A speed=7.15x    frame=26969 fps=171 q=-0.0 size=N/A time=00:18:44.83 bitrate=N/A speed=7.15x    frame=27057 fps=171 q=-0.0 size=N/A time=00:18:48.50 bitrate=N/A speed=7.15x    frame=27143 fps=171 q=-0.0 size=N/A time=00:18:52.08 bitrate=N/A speed=7.15x    frame=27229 fps=171 q=-0.0 size=N/A time=00:18:55.67 bitrate=N/A speed=7.15x    frame=27311 fps=171 q=-0.0 size=N/A time=00:18:59.09 bitrate=N/A speed=7.15x    frame=27398 fps=171 q=-0.0 size=N/A time=00:19:02.72 bitrate=N/A speed=7.15x    frame=27480 fps=171 q=-0.0 size=N/A time=00:19:06.14 bitrate=N/A speed=7.14x    frame=27562 fps=171 q=-0.0 size=N/A time=00:19:09.56 bitrate=N/A speed=7.14x    frame=27643 fps=171 q=-0.0 size=N/A time=00:19:12.94 bitrate=N/A speed=7.14x    frame=27729 fps=171 q=-0.0 size=N/A time=00:19:16.53 bitrate=N/A speed=7.14x    frame=27815 fps=171 q=-0.0 size=N/A time=00:19:20.11 bitrate=N/A speed=7.14x    frame=27903 fps=171 q=-0.0 size=N/A time=00:19:23.78 bitrate=N/A speed=7.14x    frame=27989 fps=171 q=-0.0 size=N/A time=00:19:27.37 bitrate=N/A speed=7.14x    frame=28076 fps=171 q=-0.0 size=N/A time=00:19:31.00 bitrate=N/A speed=7.14x    frame=28162 fps=171 q=-0.0 size=N/A time=00:19:34.59 bitrate=N/A speed=7.14x    frame=28248 fps=171 q=-0.0 size=N/A time=00:19:38.17 bitrate=N/A speed=7.14x    frame=28331 fps=171 q=-0.0 size=N/A time=00:19:41.63 bitrate=N/A speed=7.13x    frame=28414 fps=171 q=-0.0 size=N/A time=00:19:45.10 bitrate=N/A speed=7.13x    frame=28501 fps=171 q=-0.0 size=N/A time=00:19:48.72 bitrate=N/A speed=7.13x    frame=28586 fps=171 q=-0.0 size=N/A time=00:19:52.27 bitrate=N/A speed=7.13x    frame=28669 fps=171 q=-0.0 size=N/A time=00:19:55.73 bitrate=N/A speed=7.13x    frame=28749 fps=171 q=-0.0 size=N/A time=00:19:59.07 bitrate=N/A speed=7.13x    frame=28832 fps=171 q=-0.0 size=N/A time=00:20:02.53 bitrate=N/A speed=7.13x    frame=28915 fps=171 q=-0.0 size=N/A time=00:20:05.99 bitrate=N/A speed=7.13x    frame=29005 fps=171 q=-0.0 size=N/A time=00:20:09.75 bitrate=N/A speed=7.13x    frame=29095 fps=171 q=-0.0 size=N/A time=00:20:13.50 bitrate=N/A speed=7.13x    frame=29182 fps=171 q=-0.0 size=N/A time=00:20:17.13 bitrate=N/A speed=7.13x    frame=29264 fps=171 q=-0.0 size=N/A time=00:20:20.55 bitrate=N/A speed=7.13x    frame=29352 fps=171 q=-0.0 size=N/A time=00:20:24.22 bitrate=N/A speed=7.13x    frame=29438 fps=171 q=-0.0 size=N/A time=00:20:27.80 bitrate=N/A speed=7.13x    frame=29523 fps=171 q=-0.0 size=N/A time=00:20:31.35 bitrate=N/A speed=7.12x    frame=29607 fps=171 q=-0.0 size=N/A time=00:20:34.85 bitrate=N/A speed=7.12x    frame=29696 fps=171 q=-0.0 size=N/A time=00:20:38.57 bitrate=N/A speed=7.12x    frame=29780 fps=171 q=-0.0 size=N/A time=00:20:42.07 bitrate=N/A speed=7.12x    frame=29862 fps=171 q=-0.0 size=N/A time=00:20:45.49 bitrate=N/A speed=7.12x    frame=29940 fps=171 q=-0.0 size=N/A time=00:20:48.74 bitrate=N/A speed=7.12x    frame=30019 fps=171 q=-0.0 size=N/A time=00:20:52.04 bitrate=N/A speed=7.12x    frame=30098 fps=171 q=-0.0 size=N/A time=00:20:55.33 bitrate=N/A speed=7.11x    frame=30175 fps=171 q=-0.0 size=N/A time=00:20:58.54 bitrate=N/A speed=7.11x    frame=30253 fps=170 q=-0.0 size=N/A time=00:21:01.80 bitrate=N/A speed=7.11x    frame=30332 fps=170 q=-0.0 size=N/A time=00:21:05.09 bitrate=N/A speed=7.11x    frame=30407 fps=170 q=-0.0 size=N/A time=00:21:08.22 bitrate=N/A speed= 7.1x    frame=30487 fps=170 q=-0.0 size=N/A time=00:21:11.56 bitrate=N/A speed= 7.1x    frame=30564 fps=170 q=-0.0 size=N/A time=00:21:14.77 bitrate=N/A speed= 7.1x    frame=30637 fps=170 q=-0.0 size=N/A time=00:21:17.81 bitrate=N/A speed= 7.1x    frame=30721 fps=170 q=-0.0 size=N/A time=00:21:21.32 bitrate=N/A speed= 7.1x    frame=30806 fps=170 q=-0.0 size=N/A time=00:21:24.86 bitrate=N/A speed= 7.1x    frame=30887 fps=170 q=-0.0 size=N/A time=00:21:28.24 bitrate=N/A speed=7.09x    frame=30964 fps=170 q=-0.0 size=N/A time=00:21:31.45 bitrate=N/A speed=7.09x    frame=31054 fps=170 q=-0.0 size=N/A time=00:21:35.21 bitrate=N/A speed=7.09x    frame=31135 fps=170 q=-0.0 size=N/A time=00:21:38.58 bitrate=N/A speed=7.09x    frame=31225 fps=170 q=-0.0 size=N/A time=00:21:42.34 bitrate=N/A speed=7.09x    frame=31311 fps=170 q=-0.0 size=N/A time=00:21:45.92 bitrate=N/A speed=7.09x    frame=31396 fps=170 q=-0.0 size=N/A time=00:21:49.47 bitrate=N/A speed=7.09x    frame=31481 fps=170 q=-0.0 size=N/A time=00:21:53.02 bitrate=N/A speed=7.09x    frame=31565 fps=170 q=-0.0 size=N/A time=00:21:56.52 bitrate=N/A speed=7.09x    frame=31646 fps=170 q=-0.0 size=N/A time=00:21:59.90 bitrate=N/A speed=7.09x    frame=31738 fps=170 q=-0.0 size=N/A time=00:22:03.73 bitrate=N/A speed=7.09x    frame=31819 fps=170 q=-0.0 size=N/A time=00:22:07.11 bitrate=N/A speed=7.08x    frame=31901 fps=170 q=-0.0 size=N/A time=00:22:10.53 bitrate=N/A speed=7.08x    frame=31987 fps=170 q=-0.0 size=N/A time=00:22:14.12 bitrate=N/A speed=7.08x    frame=32073 fps=170 q=-0.0 size=N/A time=00:22:17.71 bitrate=N/A speed=7.08x    frame=32154 fps=170 q=-0.0 size=N/A time=00:22:21.08 bitrate=N/A speed=7.08x    frame=32236 fps=170 q=-0.0 size=N/A time=00:22:24.50 bitrate=N/A speed=7.08x    frame=32318 fps=170 q=-0.0 size=N/A time=00:22:27.92 bitrate=N/A speed=7.08x    frame=32399 fps=170 q=-0.0 size=N/A time=00:22:31.30 bitrate=N/A speed=7.08x    frame=32480 fps=170 q=-0.0 size=N/A time=00:22:34.68 bitrate=N/A speed=7.08x    frame=32570 fps=170 q=-0.0 size=N/A time=00:22:38.44 bitrate=N/A speed=7.08x    frame=32651 fps=170 q=-0.0 size=N/A time=00:22:41.81 bitrate=N/A speed=7.08x    frame=32732 fps=170 q=-0.0 size=N/A time=00:22:45.19 bitrate=N/A speed=7.07x    frame=32818 fps=170 q=-0.0 size=N/A time=00:22:48.78 bitrate=N/A speed=7.07x    frame=32901 fps=170 q=-0.0 size=N/A time=00:22:52.24 bitrate=N/A speed=7.07x    frame=32985 fps=170 q=-0.0 size=N/A time=00:22:55.74 bitrate=N/A speed=7.07x    frame=33065 fps=170 q=-0.0 size=N/A time=00:22:59.08 bitrate=N/A speed=7.07x    frame=33153 fps=170 q=-0.0 size=N/A time=00:23:02.75 bitrate=N/A speed=7.07x    frame=33231 fps=169 q=-0.0 size=N/A time=00:23:06.00 bitrate=N/A speed=7.07x    frame=33316 fps=169 q=-0.0 size=N/A time=00:23:09.55 bitrate=N/A speed=7.07x    frame=33397 fps=169 q=-0.0 size=N/A time=00:23:12.93 bitrate=N/A speed=7.07x    frame=33480 fps=169 q=-0.0 size=N/A time=00:23:16.39 bitrate=N/A speed=7.07x    frame=33550 fps=169 q=-0.0 size=N/A time=00:23:19.31 bitrate=N/A speed=7.06x    frame=33640 fps=169 q=-0.0 size=N/A time=00:23:23.06 bitrate=N/A speed=7.06x    frame=33719 fps=169 q=-0.0 size=N/A time=00:23:26.36 bitrate=N/A speed=7.06x    frame=33804 fps=169 q=-0.0 size=N/A time=00:23:29.90 bitrate=N/A speed=7.06x    frame=33883 fps=169 q=-0.0 size=N/A time=00:23:33.20 bitrate=N/A speed=7.06x    frame=33966 fps=169 q=-0.0 size=N/A time=00:23:36.66 bitrate=N/A speed=7.06x    [Parsed_ssim_10 @ 00000269aa4b60c0] SSIM Y:0.990187 (20.081831) U:0.992154 (21.053513) V:0.993436 (21.828466) All:0.991056 (20.484751)
[out#0/null @ 00000269a2cddd00] video:14629KiB audio:266352KiB subtitle:0KiB other streams:0KiB global headers:0KiB muxing overhead: unknown
frame=34046 fps=169 q=-0.0 Lsize=N/A time=00:23:40.00 bitrate=N/A speed=7.06x    
